<?xml version="1.0" encoding="UTF-8"?>
<svg id="Calque_2" xmlns="http://www.w3.org/2000/svg" xmlns:xlink="http://www.w3.org/1999/xlink" viewBox="0 0 127.4 127.4">
  <defs>
    <style>
      .cls-1 {
        fill: #ea503a;
      }

      .cls-2 {
        fill: #fff;
      }

      .cls-3 {
        fill: url(#Dégradé_sans_nom_14);
      }
    </style>
    <linearGradient id="Dégradé_sans_nom_14" data-name="Dégradé sans nom 14" x1="63.7" y1="0" x2="63.7" y2="127.4" gradientUnits="userSpaceOnUse">
      <stop offset="0" stop-color="#0078b4"/>
      <stop offset="1" stop-color="#0a6190"/>
    </linearGradient>
  </defs>
  <g id="Calque_1-2" data-name="Calque_1">
    <g>
      <rect class="cls-3" width="127.4" height="127.4" rx="25.19" ry="25.19"/>
      <path class="cls-2" d="M64.22,58.34c0-4.86,2.98-10.57,7.84-10.57-14.28-1.75-28.05,12.28-28.05,12.28,0,17.22,24.72,13.47,24.72,20.89,0,3.07-3.24,5.29-10.14,5.29-7.25,0-12.87-2.56-15.77-10.23-7.16,19.18,1.62,25.58,17.99,25.58s28.72-7.42,28.72-20.46c0-14.66-25.32-9.64-25.32-22.76Z"/>
      <path class="cls-1" d="M94.14,51.69c0,7.25-4.09,13.3-12.7,13.3-2.64,0-5.88-.6-8.27-2.56,1.53-3.07,2.98-7.08,2.98-10.06,0-2.64-1.11-4.6-4.09-4.6-14.28-1.75-28.05,12.28-28.05,12.28,0-14.24,12.62-21.4,28.82-21.4s21.31,5.88,21.31,13.04Z"/>
      <path class="cls-2" d="M78.11,37.34c-9.15-3-19.35-1.39-26.74,4.88-2.46,2-4.67,4.33-6.75,6.82,1.52-2.87,3.51-5.52,5.91-7.78,7.13-7.03,18.8-8.87,27.58-3.92h0Z"/>
      <path class="cls-2" d="M85.49,30.44l-5.19,5.69c-4.46-2.05-9.32-3.34-13.46-3.33-5.41,0-9.54.75-14.18,4.38-6.45,5.06-10.22,10.38-16.16,16.56l-.65.24-7.12-.72,31.95-32.09,24.8,9.27Z"/>
    </g>
  </g>
</svg>