<?xml version="1.0" encoding="UTF-8"?>
<svg id="Calque_2" xmlns="http://www.w3.org/2000/svg" xmlns:xlink="http://www.w3.org/1999/xlink" viewBox="0 0 377.74 90.98">
  <defs>
    <style>
      .cls-1 {
        fill: #ea503a;
      }

      .cls-2 {
        fill: url(#Dégradé_sans_nom_14);
      }

      .cls-3 {
        fill: url(#Dégradé_sans_nom_14-4);
      }

      .cls-4 {
        fill: url(#Dégradé_sans_nom_14-3);
      }

      .cls-5 {
        fill: url(#Dégradé_sans_nom_14-8);
      }

      .cls-6 {
        fill: url(#Dégradé_sans_nom_14-2);
      }

      .cls-7 {
        fill: url(#Dégradé_sans_nom_14-7);
      }

      .cls-8 {
        fill: url(#Dégradé_sans_nom_14-6);
      }

      .cls-9 {
        fill: url(#Dégradé_sans_nom_14-5);
      }

      .cls-10 {
        fill: url(#Dégradé_sans_nom_14-9);
      }
    </style>
    <linearGradient id="Dégradé_sans_nom_14" data-name="Dégradé sans nom 14" x1="33.37" y1="24.4" x2="33.37" y2="74.16" gradientUnits="userSpaceOnUse">
      <stop offset="0" stop-color="#0078b4"/>
      <stop offset="1" stop-color="#0a6190"/>
    </linearGradient>
    <linearGradient id="Dégradé_sans_nom_14-2" data-name="Dégradé sans nom 14" x1="81.98" y1="14.86" x2="81.98" y2="73.68" xlink:href="#Dégradé_sans_nom_14"/>
    <linearGradient id="Dégradé_sans_nom_14-3" data-name="Dégradé sans nom 14" x1="126.29" y1="31.85" x2="126.29" y2="73.68" xlink:href="#Dégradé_sans_nom_14"/>
    <linearGradient id="Dégradé_sans_nom_14-4" data-name="Dégradé sans nom 14" x1="172.36" y1="31.85" x2="172.36" y2="73.68" xlink:href="#Dégradé_sans_nom_14"/>
    <linearGradient id="Dégradé_sans_nom_14-5" data-name="Dégradé sans nom 14" x1="208.45" y1="14.86" x2="208.45" y2="73.68" xlink:href="#Dégradé_sans_nom_14"/>
    <linearGradient id="Dégradé_sans_nom_14-6" data-name="Dégradé sans nom 14" x1="231.76" y1="14.87" x2="231.76" y2="73.68" xlink:href="#Dégradé_sans_nom_14"/>
    <linearGradient id="Dégradé_sans_nom_14-7" data-name="Dégradé sans nom 14" x1="263.46" y1="31.85" x2="263.46" y2="73.68" xlink:href="#Dégradé_sans_nom_14"/>
    <linearGradient id="Dégradé_sans_nom_14-8" data-name="Dégradé sans nom 14" x1="309.02" y1="31.85" x2="309.02" y2="90.98" xlink:href="#Dégradé_sans_nom_14"/>
    <linearGradient id="Dégradé_sans_nom_14-9" data-name="Dégradé sans nom 14" x1="356.04" y1="31.85" x2="356.04" y2="73.68" xlink:href="#Dégradé_sans_nom_14"/>
  </defs>
  <g id="Calque_1-2" data-name="Calque_1">
    <g>
      <g>
        <path class="cls-2" d="M32.72,34.29c0-4.48,2.75-9.75,7.24-9.75-13.17-1.61-25.87,11.32-25.87,11.32,0,15.88,22.8,12.42,22.8,19.26,0,2.83-2.99,4.88-9.35,4.88-6.68,0-11.87-2.36-14.55-9.44-6.61,17.69,1.5,23.59,16.59,23.59s26.49-6.85,26.49-18.87c0-13.52-23.35-8.89-23.35-20.99Z"/>
        <path class="cls-6" d="M93.42,52.77c5.9-2.44,10.69-6.68,10.69-13.14,0-6.92-6.68-7.78-9.59-7.78-3.93,0-11.16,1.73-15.72,8.1.86-6.92,1.65-13.21,2.2-16.75.87-5.42-1.65-8.25-7.78-8.33-2.28-.08-5.82.16-9.36,1.81,2.99,2.83,1.5,17.29,0,27.91-1.89,13.05-3.38,22.64-4.25,27.37,1.5.94,3.85,1.41,6.3,1.41,4.17,0,8.96-1.18,9.28-3.93l1.89-15.41c1.65-7.79,4.95-11.87,8.26-11.87,1.97,0,3.15,1.65,3.15,3.61,0,3.15-2.75,7.31-9.51,7.94-.24,11.72,1.26,19.98,12.35,19.98,4.95,0,9.98-1.89,13.05-6.13-4.33,0-10.07-3.78-10.93-14.78Z"/>
        <path class="cls-4" d="M129.04,31.85c-15.01,0-24.45,11.71-24.45,24.3,0,9.98,6.53,17.53,19.03,17.53,15.09,0,24.37-11.79,24.37-24.3,0-9.99-6.45-17.53-18.95-17.53ZM131.48,58.03c-.55,3.93-1.89,8.96-6.06,8.96-3.38,0-4.8-3.38-4.8-10.46,0-1.81.16-6.92.55-9.04.55-3.93,1.89-8.96,6.06-8.96,3.46,0,4.8,3.46,4.8,10.78,0,2.2-.24,6.52-.55,8.73Z"/>
        <path class="cls-3" d="M175.12,31.85c-15.02,0-24.46,11.71-24.46,24.3,0,9.98,6.53,17.53,19.03,17.53,15.1,0,24.37-11.79,24.37-24.3,0-9.99-6.44-17.53-18.95-17.53ZM177.56,58.03c-.55,3.93-1.89,8.96-6.06,8.96-3.38,0-4.79-3.38-4.79-10.46,0-1.81.16-6.92.55-9.04.55-3.93,1.88-8.96,6.06-8.96,3.46,0,4.79,3.46,4.79,10.78,0,2.2-.23,6.52-.55,8.73Z"/>
        <path class="cls-9" d="M219.15,23.2c.86-5.42-1.89-8.25-8.5-8.33-2.51-.08-6.21.16-9.98,1.81,3.23,2.83,1.81,17.29.31,27.91-.94,6.61-2.36,12.27-3.06,16.98-1.33,8.81,1.33,12.11,7.86,12.11,2.59,0,7.31-.55,10.45-3.78-3.46-1.73-2.83-7.79-1.57-16.28,1.57-11.24,3.54-24.69,4.48-30.43Z"/>
        <path class="cls-8" d="M235.19,14.87c-4.8,0-9.12,2.59-9.83,7.7-.71,5.11,2.82,7.71,7.62,7.71s9.12-2.6,9.83-7.71c.71-5.11-2.83-7.7-7.62-7.7ZM238.97,42.86c1.41-7.79-1.34-10.62-7.47-10.69-2.36-.08-5.82.16-9.43,1.81,2.99,3.3,1.81,9.36-1.1,27.84-1.34,8.57,1.33,11.87,7.47,11.87,2.36,0,6.76-.55,9.75-3.78-3.23-1.73-2.36-7.79-.94-16.28.55-3.61,1.02-7.15,1.73-10.77Z"/>
        <path class="cls-7" d="M283.7,53.63c1.73-12.5.55-21.78-12.74-21.78-6.44,0-10.77,2.44-16.98,2.44-1.96,0-4.64-.24-7-1.34-.16,3.62-.87,11.64-2.36,22.33-.71,5.03-1.57,10.69-2.67,16.67,1.49.94,3.85,1.41,6.29,1.41,4.17,0,8.96-1.18,9.28-3.93,1.18-9.75,1.97-18.79,3.54-28.54,8.49-2.52,9.43,2.2,8.02,12.42l-1.26,9.28c-1.1,7.79,1.33,11.09,7.47,11.09,2.36,0,6.68-.55,9.67-3.78-3.3-1.73-2.51-7.79-1.26-16.28Z"/>
        <path class="cls-5" d="M326.71,34.29c-4.64,0-7.39-2.44-13.84-2.44-15.09,0-24.3,14.54-24.3,28.38,0,9.83,5.51,12.5,9.36,13.21-6.53.47-13.05,3.85-13.05,9.99,0,5.58,6.52,7.55,14.63,7.55,15.25,0,28.31-6.6,28.86-23.12.08-.78,1.26-15.49,4.79-34.91-2.44,1.1-4.48,1.34-6.45,1.34ZM303.28,83.2c-2.51,0-4.32-1.26-4.32-3.78,0-1.42.63-3.3,2.12-5.74,3.62-.16,8.65-1.65,12.66-7.63-.71,11.79-4.64,17.14-10.46,17.14ZM316.02,49.07v-.08c-1.33,9.36-5.03,14.39-8.49,14.39-1.97,0-3.3-1.41-3.3-5.27,0-7.31,3.54-21.15,13.13-18.48l-1.33,9.44Z"/>
        <path class="cls-10" d="M358.79,31.85c-15.01,0-24.45,11.71-24.45,24.3,0,9.98,6.53,17.53,19.03,17.53,15.1,0,24.37-11.79,24.37-24.3,0-9.99-6.45-17.53-18.95-17.53ZM361.23,58.03c-.55,3.93-1.89,8.96-6.06,8.96-3.38,0-4.79-3.38-4.79-10.46,0-1.81.16-6.92.55-9.04.55-3.93,1.89-8.96,6.05-8.96,3.46,0,4.8,3.46,4.8,10.78,0,2.2-.24,6.52-.55,8.73Z"/>
      </g>
      <path class="cls-1" d="M60.32,28.16c0,6.68-3.78,12.27-11.72,12.27-2.44,0-5.42-.55-7.62-2.36,1.41-2.83,2.75-6.53,2.75-9.28,0-2.44-1.02-4.24-3.78-4.24-13.17-1.61-25.87,11.32-25.87,11.32,0-13.14,11.64-19.74,26.58-19.74s19.66,5.42,19.66,12.03Z"/>
      <path class="cls-1" d="M44.6,14.92c-8.44-2.76-17.84-1.28-24.66,4.5-2.27,1.84-4.31,3.99-6.22,6.29,1.4-2.65,3.24-5.09,5.45-7.18,6.58-6.49,17.34-8.18,25.43-3.62h0Z"/>
      <path class="cls-1" d="M52.34,8.55l-4.78,5.25c-4.11-1.89-8.6-3.08-12.41-3.07-4.99,0-8.8.69-13.08,4.04-5.95,4.66-9.43,9.57-14.91,15.27l-.6.22-6.57-.66L29.47,0l22.88,8.55Z"/>
    </g>
  </g>
</svg>